<svg width="24" height="24" viewBox="0 0 24 24" fill="none" xmlns="http://www.w3.org/2000/svg">
<g clip-path="url(#clip0_99_174)">
<rect width="24" height="24" fill="#01A88D"/>
<path d="M19 5.98096V8.48096C19 8.75733 18.7764 8.98096 18.5 8.98096H16V7.98096H17.5463L13.3105 5.37451C12.502 4.87646 11.4971 4.87646 10.6904 5.37451L6.71387 7.8208C6.2666 8.09619 6 8.57373 6 9.09863V12.2803L9 10.2178V8.98095C9 8.81396 9.08398 8.65771 9.22266 8.56493L10.7227 7.56493C10.8721 7.46434 11.0635 7.4536 11.2236 7.53368L12 7.92186L12.7764 7.53368C12.9346 7.4536 13.127 7.46434 13.2774 7.56493L14.7774 8.56493C14.916 8.6577 15 8.81395 15 8.98095V9.67187L15.7236 10.0337C15.8926 10.1187 16 10.2915 16 10.481V10.6309L15 11.3309V10.79L14.2764 10.4282C14.1074 10.3433 14 10.1704 14 9.98095V9.24853L12.9639 8.5581L12.2237 8.92822C12.083 8.99853 11.917 8.99853 11.7764 8.92822L11.0362 8.5581L10 9.24853V10.481C10 10.6455 9.91898 10.7998 9.78323 10.8931L5.7832 13.6431C5.69824 13.7012 5.59961 13.731 5.5 13.731C5.41992 13.731 5.34082 13.7119 5.26758 13.6733C5.10254 13.5869 5 13.4165 5 13.231V9.09864C5 8.22413 5.44531 7.42774 6.19043 6.96925L10.166 4.52295C11.2969 3.82568 12.7022 3.82568 13.835 4.52295L18 7.08637V5.98096H19ZM18.7324 10.2886C18.5693 10.2031 18.3711 10.2144 18.2168 10.3188L14.2168 13.0688C14.0811 13.1621 14 13.3164 14 13.481V14.7134L12.9639 15.4038L12.2236 15.0337C12.083 14.9634 11.917 14.9634 11.7764 15.0337L11.0361 15.4038L10 14.7134V13.981C10 13.7915 9.89259 13.6187 9.72364 13.5337L9.00001 13.1719V12.6309L8.00001 13.3309V13.4809C8.00001 13.6704 8.10743 13.8432 8.27638 13.9282L9.00001 14.29V14.981C9.00001 15.1479 9.08399 15.3042 9.22267 15.397L10.7227 16.397C10.8721 16.4966 11.0635 16.5073 11.2236 16.4282L12 16.04L12.7764 16.4282C12.9346 16.5073 13.127 16.4966 13.2774 16.397L14.7774 15.397C14.916 15.3042 15 15.148 15 14.981V13.7441L18 11.6816V14.8633C18 15.3882 17.7334 15.8657 17.2862 16.1411L13.3096 18.5874C12.503 19.0854 11.4981 19.0854 10.6895 18.5874L6.4537 15.9809H8.00003V14.9809H5.5C5.22363 14.9809 5 15.2046 5 15.4809V17.9809H6V16.8755L10.165 19.439C10.7315 19.7876 11.3652 19.9619 12 19.9619C12.6348 19.9619 13.2685 19.7876 13.834 19.439L17.8096 16.9927C18.5547 16.5342 19 15.7378 19 14.8633V10.731C19 10.5454 18.8975 10.375 18.7324 10.2886Z" fill="white"/>
</g>
<defs>
<clipPath id="clip0_99_174">
<rect width="24" height="24" fill="white"/>
</clipPath>
</defs>
</svg>
