<svg width="24" height="24" viewBox="0 0 24 24" fill="none" xmlns="http://www.w3.org/2000/svg">
<rect width="24" height="24" fill="#01A88D"/>
<path d="M7.4278 13.709L4.31543 12.4717C4.125 12.396 4 12.2114 4 12.0068C4 11.8018 4.125 11.6177 4.31543 11.542L8.9834 9.69044L6.14746 6.8545L6.85449 6.14747L10.2285 9.52149C10.3476 9.64063 10.3984 9.81153 10.3643 9.97608C10.3301 10.1411 10.2158 10.2778 10.0596 10.3398L5.85448 12.0073L8.19799 12.9388L7.4278 13.709ZM11.0624 8.21912L12.002 5.8545L13.6699 10.0591C13.7324 10.2153 13.8691 10.3301 14.0332 10.3643C14.0674 10.3711 14.1016 10.3745 14.1348 10.3745C14.2656 10.3745 14.3936 10.3228 14.4883 10.228L17.8623 6.85402L17.1553 6.14699L14.3193 8.98293L12.4678 4.31543C12.3926 4.125 12.208 4 12.0029 4C11.7979 4 11.6143 4.125 11.5381 4.31543L10.2923 7.44891L11.0624 8.21912ZM12.943 15.7903L12.0029 18.1543L10.3359 13.9502C10.2734 13.7939 10.1367 13.6792 9.97266 13.645C9.80469 13.6108 9.63672 13.6621 9.51758 13.7812L6.14356 17.1553L6.85059 17.8623L9.68653 15.0264L11.5381 19.6938C11.6133 19.8843 11.7979 20.0093 12.0029 20.0093C12.208 20.0093 12.3916 19.8843 12.4678 19.6938L13.7132 16.5605L12.943 15.7903ZM19.6904 11.541L16.5553 10.2944L15.7851 11.0646L18.1514 12.0054L13.9473 13.6728C13.791 13.7349 13.6758 13.8716 13.6426 14.0366C13.6084 14.2012 13.6592 14.3721 13.7783 14.4912L17.1523 17.8652L17.8594 17.1582L15.0234 14.3218L19.6904 12.4707C19.8809 12.395 20.0058 12.2109 20.0058 12.0059C20.0058 11.8013 19.8809 11.6172 19.6904 11.541Z" fill="white"/>
</svg>
