<svg width="40" height="40" viewBox="0 0 40 40" fill="none" xmlns="http://www.w3.org/2000/svg">
<rect width="40" height="40" fill="#01A88D"/>
<path d="M17.1888 12.2098L19.5322 6.31543C19.6084 6.125 19.792 6 19.9971 6C20.2021 6 20.3867 6.125 20.4619 6.31543L24.0166 15.2764L29.5478 9.74512L30.2549 10.4521L24.1855 16.5215C24.0908 16.6162 23.9629 16.668 23.832 16.668C23.7988 16.668 23.7646 16.6645 23.7304 16.6577C23.5664 16.6235 23.4297 16.5088 23.3672 16.3525L19.9961 7.85449L17.959 12.98L17.1888 12.2098ZM12.9758 22.04L7.85449 20.0044L16.3525 16.6338C16.5088 16.5718 16.6231 16.4351 16.6572 16.27C16.6914 16.1055 16.6406 15.9346 16.5215 15.8154L10.4522 9.74561L9.74512 10.4526L15.2764 15.9849L6.31543 19.5391C6.125 19.6148 6 19.7988 6 20.0039C6 20.2085 6.125 20.3931 6.31543 20.4688L12.2056 22.8102L12.9758 22.04ZM33.6787 19.5371L27.7717 17.1888L27.0015 17.959L32.1396 20.0015L23.6416 23.3725C23.4854 23.4346 23.3711 23.5713 23.3369 23.7363C23.3027 23.9009 23.3535 24.0718 23.4727 24.1909L29.542 30.2603L30.249 29.5532L24.7178 24.0215L33.6787 20.4668C33.8691 20.3911 33.9941 20.207 33.9941 20.0019C33.9941 19.7974 33.8691 19.6128 33.6787 19.5371ZM22.0378 27.0122L19.9971 32.1455L16.626 23.6475C16.5635 23.4912 16.4268 23.3765 16.2627 23.3423C16.0928 23.3076 15.9258 23.3599 15.8076 23.4785L9.73828 29.5478L10.4453 30.2549L15.9766 24.7236L19.5322 33.6846C19.6074 33.875 19.792 34 19.9971 34C20.2021 34 20.3857 33.875 20.4619 33.6846L22.808 27.7825L22.0378 27.0122Z" fill="white"/>
</svg>
