<svg width="40" height="40" viewBox="0 0 40 40" fill="none" xmlns="http://www.w3.org/2000/svg">
<g clip-path="url(#clip0_99_175)">
<rect width="40" height="40" fill="#01A88D"/>
<path d="M27 12.9511H29.8176L21.3105 7.40278C20.5098 6.87934 19.4629 6.86372 18.6445 7.36128L10.2002 12.5019C9.45997 12.9526 9 13.7704 9 14.6371V21.4794L15 17.1938V14.4511C15 14.2753 15.0918 14.1127 15.2432 14.0224L17.7432 12.5224C17.8877 12.434 18.0703 12.4267 18.2236 12.5039L20 13.392L21.7764 12.5039C21.9287 12.4267 22.1103 12.434 22.2568 12.5224L24.7568 14.0224C24.9082 14.1127 25 14.2753 25 14.4511V16.142L26.7236 17.0039C26.8926 17.0888 27 17.2617 27 17.4511V18.8011L26 19.5011V17.7602L24.2764 16.8984C24.1074 16.8134 24 16.6406 24 16.4511V14.7343L21.9785 13.5209L20.5 14.2602V25.642L21.9785 26.3813L24 25.1679V22.4511C24 22.2895 24.0781 22.1381 24.209 22.0444L30.418 17.6093C30.7236 17.3896 31.124 17.3608 31.457 17.5331C31.792 17.7055 32 18.0463 32 18.4228V24.8261C32 26.0136 31.4062 27.1093 30.4121 27.7578L21.9121 33.3012C21.331 33.6796 20.665 33.8691 20 33.8691C19.334 33.8691 18.6689 33.6796 18.0879 33.3012L9 27.3744V30.9511H8V26.4511C8 26.1747 8.22363 25.9511 8.5 25.9511H13V26.9511H10.1825L18.6348 32.4633C19.4629 33.0043 20.5371 33.0043 21.3652 32.4633L29.8652 26.9199C30.5762 26.457 31 25.6742 31 24.8261V18.4228L25 22.7084V25.4511C25 25.6269 24.9082 25.7895 24.7568 25.8798L22.2569 27.3798C22.1104 27.4672 21.9287 27.4741 21.7764 27.3984L20 26.5102L18.2236 27.3984C18.0703 27.474 17.8877 27.4672 17.7432 27.3798L15.2432 25.8798C15.0918 25.7895 15 25.6269 15 25.4511V23.7602L13.2764 22.8984C13.1074 22.8134 13 22.6406 13 22.4511V21.1011L14 20.4011V22.142L15.7236 23.0038C15.8926 23.0888 16 23.2616 16 23.4511V25.1679L18.0215 26.3813L19.5 25.642V14.2602L18.0215 13.5209L16 14.7343V17.4511C16 17.6127 15.9219 17.7641 15.791 17.8578L9.58205 22.2929C9.40822 22.4169 9.2051 22.4804 9.001 22.4804C8.84475 22.4804 8.68752 22.4433 8.54299 22.3691C8.20803 22.1967 8.00002 21.8559 8.00002 21.4794V14.6371C8.00002 13.4238 8.64357 12.2782 9.68068 11.6474L18.125 6.50678C19.2685 5.81049 20.7344 5.83344 21.8574 6.56489L31 12.5277V8.95112H32V13.4511C32 13.7275 31.7764 13.9511 31.5 13.9511H27V12.9511Z" fill="white"/>
</g>
<defs>
<clipPath id="clip0_99_175">
<rect width="40" height="40" fill="white"/>
</clipPath>
</defs>
</svg>
