<svg width="40" height="40" viewBox="0 0 40 40" fill="none" xmlns="http://www.w3.org/2000/svg">
<rect width="40" height="40" fill="#8C4FFF"/>
<path d="M21 26.0004H20V25.0004H21V24.0004H22V25.0004H23V26.0004H22V27.0004H21V26.0004ZM33.4063 33.4071C33.0254 33.8006 32.5059 34.0004 31.8604 34.0004C30.2129 34.0004 29.082 31.2987 28.1738 29.1283C27.9961 28.703 27.834 28.3143 27.6875 28.0004H24.3125C24.166 28.3143 24.0039 28.703 23.8262 29.1283C22.918 31.2987 21.7871 34.0004 20.1397 34.0004C19.4941 34.0004 18.9746 33.8006 18.5938 33.4071C17.9854 32.7772 17.9971 31.9076 18 31.8104V25.5004C18 23.5707 19.5703 22.0004 21.5 22.0004C22.45 22.0004 23.3104 22.3837 23.9417 23.0004H28.0583C28.6896 22.3837 29.5501 22.0004 30.5 22.0004C32.4297 22.0004 34 23.5707 34 25.5004V31.8275C34.0029 31.9076 34.0147 32.7772 33.4063 33.4071ZM28 25.5004C28 26.8788 29.1211 28.0004 30.5 28.0004C31.8789 28.0004 33 26.8788 33 25.5004C33 24.1219 31.8789 23.0004 30.5 23.0004C29.1211 23.0004 28 24.1219 28 25.5004ZM27 25.5004C27 24.9615 27.1326 24.4568 27.3511 24.0004H24.6489C24.8674 24.4568 25 24.9615 25 25.5004C25 26.0392 24.8674 26.5439 24.6489 27.0004H27.3511C27.1326 26.5439 27 26.0392 27 25.5004ZM19 25.5004C19 26.8788 20.1211 28.0004 21.5 28.0004C22.8789 28.0004 24 26.8788 24 25.5004C24 24.1219 22.8789 23.0004 21.5 23.0004C20.1211 23.0004 19 24.1219 19 25.5004ZM22.9033 28.7421C22.9108 28.7241 22.9178 28.7077 22.9253 28.6899C22.4889 28.8858 22.0086 29.0004 21.5 29.0004C20.5203 29.0004 19.636 28.5931 19 27.9421V31.8275C19 31.8466 18.9932 32.3856 19.3174 32.7167C19.5039 32.9076 19.7734 33.0004 20.1397 33.0004C21.1211 33.0004 22.2803 30.2303 22.9033 28.7421ZM33 31.8412V27.9421C32.364 28.5931 31.4798 29.0004 30.5 29.0004C29.9915 29.0004 29.5111 28.8858 29.0747 28.6899C29.0822 28.7077 29.0892 28.7241 29.0967 28.7421C29.7197 30.2303 30.8789 33.0004 31.8604 33.0004C32.2266 33.0004 32.4961 32.9076 32.6826 32.7167C33.0068 32.3856 33 31.8466 33 31.8412ZM30.5 26.2504C30.9142 26.2504 31.25 25.9145 31.25 25.5004C31.25 25.0861 30.9142 24.7504 30.5 24.7504C30.0858 24.7504 29.75 25.0861 29.75 25.5004C29.75 25.9145 30.0858 26.2504 30.5 26.2504ZM7.00001 20.5004C7.00001 18.6481 8.12867 17.0684 9.76386 16.3894C9.62037 16.0842 9.49073 15.7716 9.38611 15.447C7.37811 16.2737 6 18.2277 6 20.5004C6 23.5331 8.46777 26.0004 11.5 26.0004H17V25.0004H11.5C9.01855 25.0004 7.00001 22.9818 7.00001 20.5004ZM25.5 12.0004C26.0726 12.0004 26.5942 12.2014 27.0161 12.5262C27.2709 12.2991 27.5443 12.094 27.8352 11.9124C27.2142 11.3517 26.4004 11.0004 25.5 11.0004C25.2485 11.0004 25.0029 11.0415 24.7611 11.0947C24.8396 11.4142 24.9029 11.7393 24.9416 12.0724C25.1242 12.0295 25.31 12.0004 25.5 12.0004ZM28 14.5004C28 14.7762 27.9483 15.0541 27.8408 15.3485C27.7842 15.5048 27.8086 15.6796 27.9063 15.8138C28.0049 15.9481 28.1738 16.0331 28.3291 16.0189C28.334 16.0189 28.4873 16.0018 28.5039 16.0004C30.9834 16.0023 33 18.0204 33 20.5004C33 20.9062 32.9286 21.2923 32.8274 21.6666C33.1366 21.8547 33.4295 22.066 33.6838 22.3206C33.8849 21.7499 34 21.139 34 20.5004C34 17.6215 31.7773 15.2523 28.957 15.0194C28.9853 14.8446 29 14.6713 29 14.5004C29 13.8408 28.8058 13.2301 28.4872 12.7029C28.1964 12.8737 27.9253 13.0695 27.6758 13.2935C27.876 13.653 28 14.0605 28 14.5004ZM17 20.0004C13.1406 20.0004 10 16.8602 10 13.0004C10 9.14051 13.1406 6.00037 17 6.00037C20.8594 6.00037 24 9.14051 24 13.0004C24 16.8602 20.8594 20.0004 17 20.0004ZM23 13.0004C23 9.69178 20.3086 7.00037 17 7.00037C13.6914 7.00037 11 9.69178 11 13.0004C11 16.309 13.6914 19.0004 17 19.0004C20.3086 19.0004 23 16.309 23 13.0004ZM21 13.0004C21 13.1898 20.8926 13.3627 20.7236 13.4476L14.7236 16.4476C14.6533 16.4828 14.5762 16.5004 14.5 16.5004C14.4082 16.5004 14.3174 16.4755 14.2373 16.4257C14.0899 16.3343 14 16.1737 14 16.0004V10.0004C14 9.82703 14.0899 9.66639 14.2373 9.57508C14.3838 9.48328 14.5693 9.47596 14.7236 9.55311L20.7236 12.5531C20.8926 12.6381 21 12.8109 21 13.0004ZM19.3819 13.0004L15 10.8094V15.1913L19.3819 13.0004Z" fill="white"/>
</svg>
