<svg width="24" height="24" viewBox="0 0 24 24" fill="none" xmlns="http://www.w3.org/2000/svg">
<rect width="24" height="24" fill="#8C4FFF"/>
<path d="M18.5 20.0003C17.041 20.0003 16.6133 18.5174 16.3301 17.536C16.2754 17.3441 16.2217 17.1585 16.167 17.0008H14.834C14.7793 17.1585 14.7256 17.3441 14.6709 17.536C14.3877 18.5174 13.9599 20.0003 12.501 20.0003C11.7158 20.0003 11.001 19.2855 11.001 18.5003V15.0008C11.001 13.8993 11.8965 13.0023 12.9961 13.0008H13C13.5723 13.0008 14.0645 13.1429 14.4238 13.4124C14.6397 13.5731 14.8008 13.7762 14.8975 14.0008H16.1191C16.2051 13.8255 16.3359 13.661 16.5059 13.516C16.9912 13.1053 17.7236 12.9193 18.4209 13.036C19.3213 13.1844 20 14.0257 20 14.993V18.5003C20 19.2855 19.2852 20.0003 18.5 20.0003ZM14.501 16.0008H16.5C16.6865 16.0008 16.8584 16.1053 16.9443 16.2713C17.085 16.5443 17.1856 16.8914 17.291 17.2591C17.585 18.2786 17.8438 19.0003 18.5 19.0003C18.7334 19.0003 19 18.7342 19 18.5003V14.993C19 14.5096 18.6807 14.0921 18.2588 14.0223C17.7666 13.9427 17.3535 14.1092 17.1533 14.2786C17.0479 14.368 17 14.4564 17 14.5008C17 14.7772 16.7764 15.0008 16.5 15.0008H14.501C14.2246 15.0008 14.001 14.7772 14.001 14.5008C14.001 14.4002 13.9385 14.2977 13.8252 14.2132C13.6426 14.076 13.3496 14.0008 13 14.0008H12.998C12.4482 14.0013 12.001 14.45 12.001 15.0008V18.5003C12.001 18.7342 12.2676 19.0003 12.501 19.0003C13.1572 19.0003 13.416 18.2786 13.71 17.2591C13.8154 16.8914 13.916 16.5443 14.0566 16.2713C14.1426 16.1053 14.3145 16.0008 14.501 16.0008ZM14.3589 7.5483C14.6472 7.20205 15.0584 7.00033 15.5 7.00033C16.3271 7.00033 17 7.67318 17 8.49935L16.9844 8.63753C16.9658 8.86458 17.1025 9.07601 17.3184 9.15071C18.3242 9.5013 19 10.4456 19 11.5003C19 11.6718 18.9824 11.8392 18.9494 12.0011H19.9493C19.9733 11.8361 20 11.6718 20 11.5003C20 10.1463 19.208 8.92268 17.9951 8.34895C17.917 7.04084 16.8281 6.00032 15.5 6.00032C14.9972 6.00032 14.5177 6.15193 14.1114 6.42842C14.2425 6.78291 14.3219 7.15835 14.3589 7.5483ZM10.001 14.9703C10.001 14.6287 10.0705 14.3058 10.1767 14.0003H7.5C6.12109 14.0003 5 12.8787 5 11.5003C5 10.7769 5.31049 10.1294 5.80878 9.67361C5.67029 9.34011 5.58625 8.98226 5.53217 8.61398C4.59729 9.24301 4 10.3016 4 11.5003C4 13.43 5.57031 15.0003 7.5 15.0003H10.001V14.9703ZM7.96387 10.0008C7.78809 10.0008 7.61328 9.95247 7.45801 9.85628C7.1709 9.67903 7 9.37239 7 9.03548V4.96517C7 4.62826 7.1709 4.32162 7.45801 4.14437C7.74219 3.96908 8.09278 3.95101 8.39649 4.10335L12.4668 6.13753C12.7959 6.30208 13 6.63265 13 7.00032C13 7.36799 12.7959 7.69856 12.4668 7.86311L8.39551 9.89778C8.25879 9.96663 8.11035 10.0008 7.96387 10.0008ZM7.9834 5.014L8 9.03548L12.0195 6.96859L7.9834 5.014Z" fill="white"/>
</svg>
